<?xml version="1.0" encoding="UTF-8"?>
<svg xmlns="http://www.w3.org/2000/svg" xmlns:xlink="http://www.w3.org/1999/xlink" width="32px" height="31px" viewBox="0 0 31 31" version="1.1">
<g id="surface1">
<path style=" stroke:none;fill-rule:nonzero;fill:rgb(8.627451%,8.627451%,7.843137%);fill-opacity:1;" d="M 15.5 0 C 6.941406 0 0 7.105469 0 15.871094 C 0 22.886719 4.441406 28.835938 10.601562 30.933594 C 11.375 31.078125 11.660156 30.589844 11.660156 30.167969 C 11.660156 29.792969 11.644531 28.539062 11.636719 27.214844 C 7.324219 28.175781 6.414062 25.34375 6.414062 25.34375 C 5.710938 23.507812 4.695312 23.019531 4.695312 23.019531 C 3.289062 22.035156 4.800781 22.054688 4.800781 22.054688 C 6.355469 22.167969 7.175781 23.691406 7.175781 23.691406 C 8.558594 26.117188 10.804688 25.414062 11.6875 25.007812 C 11.828125 23.984375 12.226562 23.285156 12.671875 22.886719 C 9.230469 22.484375 5.609375 21.125 5.609375 15.042969 C 5.609375 13.308594 6.214844 11.894531 7.207031 10.78125 C 7.046875 10.382812 6.515625 8.769531 7.355469 6.582031 C 7.355469 6.582031 8.660156 6.15625 11.621094 8.210938 C 12.855469 7.859375 14.183594 7.679688 15.5 7.675781 C 16.816406 7.679688 18.144531 7.859375 19.382812 8.210938 C 22.339844 6.15625 23.640625 6.582031 23.640625 6.582031 C 24.484375 8.769531 23.953125 10.382812 23.792969 10.78125 C 24.789062 11.894531 25.386719 13.308594 25.386719 15.042969 C 25.386719 21.140625 21.761719 22.480469 18.3125 22.875 C 18.867188 23.367188 19.363281 24.332031 19.363281 25.8125 C 19.363281 27.9375 19.34375 29.648438 19.34375 30.167969 C 19.34375 30.59375 19.625 31.085938 20.410156 30.929688 C 26.5625 28.828125 31 22.882812 31 15.871094 C 31 7.105469 24.058594 0 15.5 0 Z M 5.804688 22.609375 C 5.769531 22.6875 5.648438 22.710938 5.539062 22.660156 C 5.425781 22.605469 5.363281 22.5 5.402344 22.421875 C 5.433594 22.339844 5.554688 22.316406 5.667969 22.371094 C 5.78125 22.421875 5.84375 22.53125 5.804688 22.609375 Z M 6.566406 23.308594 C 6.492188 23.378906 6.347656 23.34375 6.25 23.234375 C 6.148438 23.121094 6.132812 22.976562 6.207031 22.902344 C 6.28125 22.832031 6.421875 22.867188 6.523438 22.976562 C 6.625 23.089844 6.644531 23.234375 6.566406 23.308594 Z M 7.089844 24.199219 C 6.996094 24.265625 6.839844 24.203125 6.746094 24.0625 C 6.648438 23.921875 6.648438 23.75 6.746094 23.683594 C 6.84375 23.613281 6.996094 23.675781 7.09375 23.816406 C 7.1875 23.960938 7.1875 24.128906 7.089844 24.199219 Z M 7.976562 25.230469 C 7.890625 25.328125 7.710938 25.300781 7.578125 25.167969 C 7.441406 25.042969 7.402344 24.859375 7.488281 24.765625 C 7.574219 24.667969 7.757812 24.695312 7.890625 24.824219 C 8.023438 24.953125 8.066406 25.136719 7.976562 25.230469 Z M 9.117188 25.578125 C 9.082031 25.703125 8.90625 25.757812 8.730469 25.707031 C 8.554688 25.652344 8.441406 25.507812 8.476562 25.382812 C 8.511719 25.257812 8.6875 25.199219 8.863281 25.253906 C 9.039062 25.308594 9.15625 25.453125 9.117188 25.578125 Z M 10.417969 25.726562 C 10.425781 25.859375 10.273438 25.964844 10.089844 25.96875 C 9.90625 25.972656 9.753906 25.867188 9.753906 25.738281 C 9.753906 25.605469 9.898438 25.5 10.085938 25.496094 C 10.269531 25.492188 10.417969 25.597656 10.417969 25.726562 Z M 11.699219 25.675781 C 11.71875 25.804688 11.59375 25.933594 11.410156 25.96875 C 11.230469 26.003906 11.0625 25.925781 11.039062 25.796875 C 11.015625 25.667969 11.148438 25.535156 11.328125 25.503906 C 11.511719 25.46875 11.675781 25.546875 11.699219 25.675781 Z M 11.699219 25.675781 "/>
</g>
</svg>
